<?xml version="1.0" encoding="utf-8" standalone="no"?>
<!DOCTYPE svg PUBLIC "-//W3C//DTD SVG 1.1//EN"
  "http://www.w3.org/Graphics/SVG/1.1/DTD/svg11.dtd">
<svg xmlns:xlink="http://www.w3.org/1999/xlink" width="360pt" height="216pt" viewBox="0 0 360 216" xmlns="http://www.w3.org/2000/svg" version="1.1">
 <metadata>
  <rdf:RDF xmlns:dc="http://purl.org/dc/elements/1.1/" xmlns:cc="http://creativecommons.org/ns#" xmlns:rdf="http://www.w3.org/1999/02/22-rdf-syntax-ns#">
   <cc:Work>
    <dc:type rdf:resource="http://purl.org/dc/dcmitype/StillImage"/>
    <dc:date>2025-05-10T11:29:08.658610</dc:date>
    <dc:format>image/svg+xml</dc:format>
    <dc:creator>
     <cc:Agent>
      <dc:title>Matplotlib v3.10.1, https://matplotlib.org/</dc:title>
     </cc:Agent>
    </dc:creator>
   </cc:Work>
  </rdf:RDF>
 </metadata>
 <defs>
  <style type="text/css">*{stroke-linejoin: round; stroke-linecap: butt}</style>
 </defs>
 <g id="figure_1">
  <g id="patch_1">
   <path d="M 0 216 
L 360 216 
L 360 0 
L 0 0 
z
" style="fill: #ffffff"/>
  </g>
  <g id="axes_1">
   <g id="patch_2">
    <path d="M 10.8 205.2 
L 349.2 205.2 
L 349.2 10.8 
L 10.8 10.8 
z
" style="fill: #ffffff"/>
   </g>
   <g id="QuadMesh_1">
    <path d="M 10.8 10.8 
L 349.2 10.8 
L 349.2 17.28 
L 10.8 17.28 
L 10.8 10.8 
" clip-path="url(#p527eae9f3a)" style="fill: #2356a4"/>
    <path d="M 10.8 17.28 
L 349.2 17.28 
L 349.2 23.76 
L 10.8 23.76 
L 10.8 17.28 
" clip-path="url(#p527eae9f3a)" style="fill: #172976"/>
    <path d="M 10.8 23.76 
L 349.2 23.76 
L 349.2 30.24 
L 10.8 30.24 
L 10.8 23.76 
" clip-path="url(#p527eae9f3a)" style="fill: #2a9ec1"/>
    <path d="M 10.8 30.24 
L 349.2 30.24 
L 349.2 36.72 
L 10.8 36.72 
L 10.8 30.24 
" clip-path="url(#p527eae9f3a)" style="fill: #299dc1"/>
    <path d="M 10.8 36.72 
L 349.2 36.72 
L 349.2 43.2 
L 10.8 43.2 
L 10.8 36.72 
" clip-path="url(#p527eae9f3a)" style="fill: #081d58"/>
    <path d="M 10.8 43.2 
L 349.2 43.2 
L 349.2 49.68 
L 10.8 49.68 
L 10.8 43.2 
" clip-path="url(#p527eae9f3a)" style="fill: #1a2b7e"/>
    <path d="M 10.8 49.68 
L 349.2 49.68 
L 349.2 56.16 
L 10.8 56.16 
L 10.8 49.68 
" clip-path="url(#p527eae9f3a)" style="fill: #216aad"/>
    <path d="M 10.8 56.16 
L 349.2 56.16 
L 349.2 62.64 
L 10.8 62.64 
L 10.8 56.16 
" clip-path="url(#p527eae9f3a)" style="fill: #233390"/>
    <path d="M 10.8 62.64 
L 349.2 62.64 
L 349.2 69.12 
L 10.8 69.12 
L 10.8 62.64 
" clip-path="url(#p527eae9f3a)" style="fill: #091e5a"/>
    <path d="M 10.8 69.12 
L 349.2 69.12 
L 349.2 75.6 
L 10.8 75.6 
L 10.8 69.12 
" clip-path="url(#p527eae9f3a)" style="fill: #243c98"/>
    <path d="M 10.8 75.6 
L 349.2 75.6 
L 349.2 82.08 
L 10.8 82.08 
L 10.8 75.6 
" clip-path="url(#p527eae9f3a)" style="fill: #081d58"/>
    <path d="M 10.8 82.08 
L 349.2 82.08 
L 349.2 88.56 
L 10.8 88.56 
L 10.8 82.08 
" clip-path="url(#p527eae9f3a)" style="fill: #21308b"/>
    <path d="M 10.8 88.56 
L 349.2 88.56 
L 349.2 95.04 
L 10.8 95.04 
L 10.8 88.56 
" clip-path="url(#p527eae9f3a)" style="fill: #12256d"/>
    <path d="M 10.8 95.04 
L 349.2 95.04 
L 349.2 101.52 
L 10.8 101.52 
L 10.8 95.04 
" clip-path="url(#p527eae9f3a)" style="fill: #1a2b7e"/>
    <path d="M 10.8 101.52 
L 349.2 101.52 
L 349.2 108 
L 10.8 108 
L 10.8 101.52 
" clip-path="url(#p527eae9f3a)" style="fill: #233390"/>
    <path d="M 10.8 108 
L 349.2 108 
L 349.2 114.48 
L 10.8 114.48 
L 10.8 108 
" clip-path="url(#p527eae9f3a)" style="fill: #081d58"/>
    <path d="M 10.8 114.48 
L 349.2 114.48 
L 349.2 120.96 
L 10.8 120.96 
L 10.8 114.48 
" clip-path="url(#p527eae9f3a)" style="fill: #234c9f"/>
    <path d="M 10.8 120.96 
L 349.2 120.96 
L 349.2 127.44 
L 10.8 127.44 
L 10.8 120.96 
" clip-path="url(#p527eae9f3a)" style="fill: #225ca7"/>
    <path d="M 10.8 127.44 
L 349.2 127.44 
L 349.2 133.92 
L 10.8 133.92 
L 10.8 127.44 
" clip-path="url(#p527eae9f3a)" style="fill: #203089"/>
    <path d="M 10.8 133.92 
L 349.2 133.92 
L 349.2 140.4 
L 10.8 140.4 
L 10.8 133.92 
" clip-path="url(#p527eae9f3a)" style="fill: #081d58"/>
    <path d="M 10.8 140.4 
L 349.2 140.4 
L 349.2 146.88 
L 10.8 146.88 
L 10.8 140.4 
" clip-path="url(#p527eae9f3a)" style="fill: #081d58"/>
    <path d="M 10.8 146.88 
L 349.2 146.88 
L 349.2 153.36 
L 10.8 153.36 
L 10.8 146.88 
" clip-path="url(#p527eae9f3a)" style="fill: #206eb0"/>
    <path d="M 10.8 153.36 
L 349.2 153.36 
L 349.2 159.84 
L 10.8 159.84 
L 10.8 153.36 
" clip-path="url(#p527eae9f3a)" style="fill: #24479d"/>
    <path d="M 10.8 159.84 
L 349.2 159.84 
L 349.2 166.32 
L 10.8 166.32 
L 10.8 159.84 
" clip-path="url(#p527eae9f3a)" style="fill: #1f82b9"/>
    <path d="M 10.8 166.32 
L 349.2 166.32 
L 349.2 172.8 
L 10.8 172.8 
L 10.8 166.32 
" clip-path="url(#p527eae9f3a)" style="fill: #1d91c0"/>
    <path d="M 10.8 172.8 
L 349.2 172.8 
L 349.2 179.28 
L 10.8 179.28 
L 10.8 172.8 
" clip-path="url(#p527eae9f3a)" style="fill: #081d58"/>
    <path d="M 10.8 179.28 
L 349.2 179.28 
L 349.2 185.76 
L 10.8 185.76 
L 10.8 179.28 
" clip-path="url(#p527eae9f3a)" style="fill: #1c2d81"/>
    <path d="M 10.8 185.76 
L 349.2 185.76 
L 349.2 192.24 
L 10.8 192.24 
L 10.8 185.76 
" clip-path="url(#p527eae9f3a)" style="fill: #24409a"/>
    <path d="M 10.8 192.24 
L 349.2 192.24 
L 349.2 198.72 
L 10.8 198.72 
L 10.8 192.24 
" clip-path="url(#p527eae9f3a)" style="fill: #0a1e5c"/>
    <path d="M 10.8 198.72 
L 349.2 198.72 
L 349.2 205.2 
L 10.8 205.2 
L 10.8 198.72 
" clip-path="url(#p527eae9f3a)" style="fill: #081d58"/>
   </g>
   <g id="matplotlib.axis_1"/>
   <g id="matplotlib.axis_2"/>
  </g>
 </g>
 <defs>
  <clipPath id="p527eae9f3a">
   <rect x="10.8" y="10.8" width="338.4" height="194.4"/>
  </clipPath>
 </defs>
</svg>
